<svg version="1" xmlns="http://www.w3.org/2000/svg" width="380" height="380" viewBox="0 0 285.000000 285.000000"><path d="M116.5 19.5c-11 5.2-22.9 10.8-26.5 12.4-3.6 1.6-10.1 4.6-14.5 6.7-4.4 2-13.2 6-19.5 8.9-19.1 8.7-23.1 10.6-32.7 15.1L14 66.9V166.6l4.8 2.2c2.6 1.1 8.8 3.7 13.7 5.7 5 2.1 11.4 4.8 14.3 6.1 10.5 4.8 9.5 9.7 9.6-44.9l.1-47.8 9.5-4.3c5.2-2.4 11.8-5.3 14.5-6.6 2.8-1.3 7.7-3.5 11-5 8.5-3.9 16.4-7.5 28.5-13 5.8-2.7 20.8-9.6 33.5-15.4l23-10.5 6.1 16.7 6.2 16.7-2.7 1.1c-1.4.7-17.2 7.8-35.1 15.9-17.9 8.1-35.7 16.1-39.7 17.8-4 1.7-7 3.4-6.7 3.9.3.4 4.4 2.7 9.2 4.9 4.8 2.3 14 6.8 20.5 10 6.5 3.3 12.4 5.9 13.1 5.9.7 0 10.4-4 21.5-9 11.2-4.9 20.5-9 20.7-9 .3 0 .4 12 .4 26.7v32.2l20.2-10 20.3-10v-28.4c0-15.6.2-28.5.5-28.8.5-.5 34.7-15.7 35.2-15.7.2 0 .3 32.3.3 71.7v71.8l-7.5 3.3c-4.1 1.8-9.3 4.1-11.5 5.2-2.2 1-6.9 3.2-10.5 4.8l-6.5 2.9v-27.4c0-15.1-.3-27.7-.7-27.9-.4-.2-9.5 3.9-20.2 9.1-16.6 8.1-19.6 9.9-19.6 11.8 0 1.2-.1 13.6-.3 27.5l-.2 25.3-20 8.9c-11 5-20.4 9-21 9-.7 0-.9-23.3-.8-68.4 0-37.5-.2-68.8-.6-69.4-.7-1.1-61.4-31.2-61.9-30.7-.2.2-.4 7.8-.5 16.9l-.2 16.6 9.3 4.5c5 2.5 9.2 5 9.3 5.7.2 5 0 78.1-.3 78.3-.2.1-19.9-8-43.8-18s-43.7-18.1-44-18c-.7.4-.6 33.2 0 33.8.3.3 25 10.9 55 23.7 30 12.8 59.6 25.4 65.8 28.1L147 278l14.3-6.4c7.8-3.5 27.3-12.1 43.2-19.1 16-7 33.7-14.9 39.5-17.5 5.8-2.6 12.5-5.5 14.9-6.6 2.5-1 6.7-3 9.5-4.4l5.1-2.5v-74.3c0-40.9-.2-74.8-.5-75.2-.3-.5-4.2-2.5-8.5-4.5-4.4-2-10-4.6-12.5-5.7-2.5-1.2-8.6-4-13.6-6.3-5-2.4-10-4.5-11.1-4.9-1.6-.5-18.4 6.1-29.1 11.6-2.8 1.5-3.3.9-6.1-7.2-1.3-3.6-3.9-10.8-5.8-16l-3.5-9.5-20.8-9.2c-11.5-5.1-22-9.4-23.2-9.7-1.5-.3-9.3 2.9-22.3 8.9zM226 120.3v24.3l-4.2 1.9c-2.4 1-9.2 4.2-15.2 7.1-6 2.9-11.2 5.2-11.5 4.9-.4-.2-.6-11.2-.6-24.5v-24.2l15-6.9c8.3-3.8 15.3-6.9 15.8-6.9.4 0 .7 10.9.7 24.3zm0 88.7v24l-5.2-2.1c-2.9-1.1-9.6-3.7-14.8-5.7-5.2-1.9-10-3.9-10.5-4.3-1.1-.8-1.4-20.3-.4-21.3.6-.7 29.2-14.4 30.2-14.5.4-.1.7 10.7.7 23.9z"/></svg>